<svg xmlns="http://www.w3.org/2000/svg" xmlns:xlink="http://www.w3.org/1999/xlink" width="1920" zoomAndPan="magnify" viewBox="0 0 1440 809.999993" height="1080" preserveAspectRatio="xMidYMid meet" version="1.0"><defs><g/><clipPath id="99da766fa4"><path d="M 426.710938 112.269531 L 521.960938 112.269531 L 521.960938 207.519531 L 426.710938 207.519531 Z M 426.710938 112.269531 " clip-rule="nonzero"/></clipPath><clipPath id="1be9a20f9a"><path d="M 474.476562 112.269531 C 448.097656 112.269531 426.710938 133.652344 426.710938 160.035156 C 426.710938 186.414062 448.097656 207.800781 474.476562 207.800781 C 500.855469 207.800781 522.242188 186.414062 522.242188 160.035156 C 522.242188 133.652344 500.855469 112.269531 474.476562 112.269531 Z M 474.476562 112.269531 " clip-rule="nonzero"/></clipPath><clipPath id="d59c5ce674"><path d="M 689.1875 219.929688 L 784.4375 219.929688 L 784.4375 315.179688 L 689.1875 315.179688 Z M 689.1875 219.929688 " clip-rule="nonzero"/></clipPath><clipPath id="00d86eebf4"><path d="M 736.953125 219.929688 C 710.570312 219.929688 689.1875 241.316406 689.1875 267.695312 C 689.1875 294.078125 710.570312 315.460938 736.953125 315.460938 C 763.332031 315.460938 784.71875 294.078125 784.71875 267.695312 C 784.71875 241.316406 763.332031 219.929688 736.953125 219.929688 Z M 736.953125 219.929688 " clip-rule="nonzero"/></clipPath><clipPath id="9d203659ea"><path d="M 474.484375 395.867188 L 569.734375 395.867188 L 569.734375 491.117188 L 474.484375 491.117188 Z M 474.484375 395.867188 " clip-rule="nonzero"/></clipPath><clipPath id="9a8dd8514f"><path d="M 522.25 395.867188 C 495.867188 395.867188 474.484375 417.253906 474.484375 443.632812 C 474.484375 470.015625 495.867188 491.398438 522.25 491.398438 C 548.628906 491.398438 570.015625 470.015625 570.015625 443.632812 C 570.015625 417.253906 548.628906 395.867188 522.25 395.867188 Z M 522.25 395.867188 " clip-rule="nonzero"/></clipPath><clipPath id="1e4c2e58b3"><path d="M 753.824219 443.640625 L 849.074219 443.640625 L 849.074219 538.890625 L 753.824219 538.890625 Z M 753.824219 443.640625 " clip-rule="nonzero"/></clipPath><clipPath id="d9a0e0febb"><path d="M 801.589844 443.640625 C 775.210938 443.640625 753.824219 465.027344 753.824219 491.40625 C 753.824219 517.785156 775.210938 539.171875 801.589844 539.171875 C 827.972656 539.171875 849.355469 517.785156 849.355469 491.40625 C 849.355469 465.027344 827.972656 443.640625 801.589844 443.640625 Z M 801.589844 443.640625 " clip-rule="nonzero"/></clipPath><clipPath id="27f9f48b71"><path d="M 593.644531 588.859375 L 688.894531 588.859375 L 688.894531 684.109375 L 593.644531 684.109375 Z M 593.644531 588.859375 " clip-rule="nonzero"/></clipPath><clipPath id="f0a2050e2f"><path d="M 641.410156 588.859375 C 615.027344 588.859375 593.644531 610.246094 593.644531 636.625 C 593.644531 663.003906 615.027344 684.390625 641.410156 684.390625 C 667.789062 684.390625 689.175781 663.003906 689.175781 636.625 C 689.175781 610.246094 667.789062 588.859375 641.410156 588.859375 Z M 641.410156 588.859375 " clip-rule="nonzero"/></clipPath><clipPath id="5dcfaf5e99"><path d="M 950 378 L 993 378 L 993 415 L 950 415 Z M 950 378 " clip-rule="nonzero"/></clipPath><clipPath id="53554d3f7b"><path d="M 982.441406 360.820312 L 1002.148438 397.742188 L 969.886719 414.960938 L 950.179688 378.039062 Z M 982.441406 360.820312 " clip-rule="nonzero"/></clipPath><clipPath id="58b070793b"><path d="M 992.28125 379.253906 L 969.859375 414.90625 L 950.179688 378.039062 Z M 992.28125 379.253906 " clip-rule="nonzero"/></clipPath><clipPath id="338e1d3b35"><path d="M 0.160156 0 L 42.398438 0 L 42.398438 36.960938 L 0.160156 36.960938 Z M 0.160156 0 " clip-rule="nonzero"/></clipPath><clipPath id="d99e6d4217"><path d="M 32.441406 -17.179688 L 52.148438 19.742188 L 19.886719 36.960938 L 0.179688 0.0390625 Z M 32.441406 -17.179688 " clip-rule="nonzero"/></clipPath><clipPath id="c268457407"><path d="M 42.28125 1.253906 L 19.859375 36.90625 L 0.179688 0.0390625 Z M 42.28125 1.253906 " clip-rule="nonzero"/></clipPath><clipPath id="f7e99acbe2"><rect x="0" width="43" y="0" height="37"/></clipPath><clipPath id="4d13c2ee81"><path d="M 961.871094 429.109375 L 998.546875 429.109375 L 998.546875 465.675781 L 961.871094 465.675781 Z M 961.871094 429.109375 " clip-rule="nonzero"/></clipPath><clipPath id="d749526896"><path d="M 0.871094 0.109375 L 37.546875 0.109375 L 37.546875 36.675781 L 0.871094 36.675781 Z M 0.871094 0.109375 " clip-rule="nonzero"/></clipPath><clipPath id="68bae9e28c"><rect x="0" width="38" y="0" height="37"/></clipPath><clipPath id="d726267b6e"><path d="M 755 353 L 796 353 L 796 394 L 755 394 Z M 755 353 " clip-rule="nonzero"/></clipPath><clipPath id="feeae4e263"><path d="M 790.964844 345.195312 L 800.109375 386.035156 L 764.425781 394.023438 L 755.28125 353.183594 Z M 790.964844 345.195312 " clip-rule="nonzero"/></clipPath><clipPath id="424f052b2b"><path d="M 795.53125 365.585938 L 764.410156 393.964844 L 755.28125 353.183594 Z M 795.53125 365.585938 " clip-rule="nonzero"/></clipPath><clipPath id="9577b25ccd"><path d="M 0.28125 0.0390625 L 40.601562 0.0390625 L 40.601562 41 L 0.28125 41 Z M 0.28125 0.0390625 " clip-rule="nonzero"/></clipPath><clipPath id="cbacf6135d"><path d="M 35.964844 -7.804688 L 45.109375 33.035156 L 9.425781 41.023438 L 0.28125 0.183594 Z M 35.964844 -7.804688 " clip-rule="nonzero"/></clipPath><clipPath id="3c3340f221"><path d="M 40.53125 12.585938 L 9.410156 40.964844 L 0.28125 0.183594 Z M 40.53125 12.585938 " clip-rule="nonzero"/></clipPath><clipPath id="51ca4c805e"><rect x="0" width="41" y="0" height="41"/></clipPath><clipPath id="1a443023ef"><path d="M 628 447 L 670 447 L 670 488 L 628 488 Z M 628 447 " clip-rule="nonzero"/></clipPath><clipPath id="40f8e8035a"><path d="M 635.246094 443.792969 L 676.355469 451.652344 L 669.488281 487.570312 L 628.382812 479.710938 Z M 635.246094 443.792969 " clip-rule="nonzero"/></clipPath><clipPath id="6031c8d505"><path d="M 655.773438 447.71875 L 669.429688 487.558594 L 628.382812 479.710938 Z M 655.773438 447.71875 " clip-rule="nonzero"/></clipPath><clipPath id="6ccd0cec1e"><path d="M 0.320312 0.601562 L 41.601562 0.601562 L 41.601562 40.679688 L 0.320312 40.679688 Z M 0.320312 0.601562 " clip-rule="nonzero"/></clipPath><clipPath id="85f8b17f25"><path d="M 7.246094 -3.207031 L 48.355469 4.652344 L 41.488281 40.570312 L 0.382812 32.710938 Z M 7.246094 -3.207031 " clip-rule="nonzero"/></clipPath><clipPath id="ce75381cc4"><path d="M 27.773438 0.71875 L 41.429688 40.558594 L 0.382812 32.710938 Z M 27.773438 0.71875 " clip-rule="nonzero"/></clipPath><clipPath id="c2e0aae58c"><rect x="0" width="42" y="0" height="41"/></clipPath><clipPath id="057d75c426"><path d="M 600 288 L 653 288 L 653 341 L 600 341 Z M 600 288 " clip-rule="nonzero"/></clipPath><clipPath id="3ef4831fe6"><path d="M 600.585938 313.753906 L 627.515625 288.851562 L 652.339844 315.703125 L 625.410156 340.601562 Z M 600.585938 313.753906 " clip-rule="nonzero"/></clipPath><clipPath id="ee759aaed3"><path d="M 0.480469 0.71875 L 52.558594 0.71875 L 52.558594 52.800781 L 0.480469 52.800781 Z M 0.480469 0.71875 " clip-rule="nonzero"/></clipPath><clipPath id="0c15b01faa"><path d="M 0.585938 25.753906 L 27.515625 0.851562 L 52.339844 27.703125 L 25.410156 52.601562 Z M 0.585938 25.753906 " clip-rule="nonzero"/></clipPath><clipPath id="6915f7b855"><rect x="0" width="53" y="0" height="53"/></clipPath><clipPath id="14602696e2"><path d="M 477 264 L 521 264 L 521 308 L 477 308 Z M 477 264 " clip-rule="nonzero"/></clipPath><clipPath id="5b6e4b1ae3"><path d="M 477.605469 271.070312 L 513.65625 264.316406 L 520.386719 300.257812 L 484.339844 307.011719 Z M 477.605469 271.070312 " clip-rule="nonzero"/></clipPath><clipPath id="e62f783a3b"><path d="M 0.601562 0.238281 L 43.558594 0.238281 L 43.558594 43.199219 L 0.601562 43.199219 Z M 0.601562 0.238281 " clip-rule="nonzero"/></clipPath><clipPath id="04fc78856a"><path d="M 0.605469 7.070312 L 36.65625 0.316406 L 43.386719 36.257812 L 7.339844 43.011719 Z M 0.605469 7.070312 " clip-rule="nonzero"/></clipPath><clipPath id="cf5edc6128"><rect x="0" width="44" y="0" height="44"/></clipPath><clipPath id="e536703be5"><path d="M 491 314 L 532 314 L 532 356 L 491 356 Z M 491 314 " clip-rule="nonzero"/></clipPath><clipPath id="29962f8cd1"><path d="M 527.539062 307.011719 L 535.753906 348.046875 L 499.898438 355.222656 L 491.683594 314.183594 Z M 527.539062 307.011719 " clip-rule="nonzero"/></clipPath><clipPath id="caa5678ae2"><path d="M 531.640625 327.5 L 499.882812 355.164062 L 491.683594 314.183594 Z M 531.640625 327.5 " clip-rule="nonzero"/></clipPath><clipPath id="ce9c58b6df"><path d="M 0.519531 0.160156 L 40.839844 0.160156 L 40.839844 41.199219 L 0.519531 41.199219 Z M 0.519531 0.160156 " clip-rule="nonzero"/></clipPath><clipPath id="bc6f4e3621"><path d="M 36.539062 -6.988281 L 44.753906 34.046875 L 8.898438 41.222656 L 0.683594 0.183594 Z M 36.539062 -6.988281 " clip-rule="nonzero"/></clipPath><clipPath id="ed21d8715e"><path d="M 40.640625 13.5 L 8.882812 41.164062 L 0.683594 0.183594 Z M 40.640625 13.5 " clip-rule="nonzero"/></clipPath><clipPath id="829682018b"><rect x="0" width="41" y="0" height="42"/></clipPath></defs><rect x="-144" width="1728" fill="#ffffff" y="-80.999999" height="971.999992" fill-opacity="1"/><rect x="-144" width="1728" fill="#ffffff" y="-80.999999" height="971.999992" fill-opacity="1"/><g clip-path="url(#99da766fa4)"><g clip-path="url(#1be9a20f9a)"><path stroke-linecap="butt" transform="matrix(0.75, 0, 0, 0.75, 426.711489, 112.268143)" fill="none" stroke-linejoin="miter" d="M 63.686768 0.0018508 C 28.514891 0.0018508 -0.000735007 28.512269 -0.000735007 63.689354 C -0.000735007 98.861231 28.514891 127.376857 63.686768 127.376857 C 98.858645 127.376857 127.374271 98.861231 127.374271 63.689354 C 127.374271 28.512269 98.858645 0.0018508 63.686768 0.0018508 Z M 63.686768 0.0018508 " stroke="#000000" stroke-width="16" stroke-opacity="1" stroke-miterlimit="4"/></g></g><g fill="#000000" fill-opacity="1"><g transform="translate(464.469299, 173.01814)"><g><path d="M 12.21875 0 L 9.453125 0 L 9.453125 -17.8125 C 9.453125 -19.289062 9.5 -20.691406 9.59375 -22.015625 C 9.351562 -21.773438 9.082031 -21.519531 8.78125 -21.25 C 8.488281 -20.988281 7.132812 -19.878906 4.71875 -17.921875 L 3.21875 -19.875 L 9.828125 -24.984375 L 12.21875 -24.984375 Z M 12.21875 0 "/></g></g></g><g clip-path="url(#d59c5ce674)"><g clip-path="url(#00d86eebf4)"><path stroke-linecap="butt" transform="matrix(0.75, 0, 0, 0.75, 689.186516, 219.93083)" fill="none" stroke-linejoin="miter" d="M 63.688816 -0.00152298 C 28.511731 -0.00152298 0.0013126 28.514103 0.0013126 63.68598 C 0.0013126 98.863065 28.511731 127.373483 63.688816 127.373483 C 98.860693 127.373483 127.376319 98.863065 127.376319 63.68598 C 127.376319 28.514103 98.860693 -0.00152298 63.688816 -0.00152298 Z M 63.688816 -0.00152298 " stroke="#000000" stroke-width="16" stroke-opacity="1" stroke-miterlimit="4"/></g></g><g fill="#000000" fill-opacity="1"><g transform="translate(726.944326, 280.680827)"><g><path d="M 17.1875 -19.109375 C 17.1875 -17.515625 16.738281 -16.207031 15.84375 -15.1875 C 14.957031 -14.175781 13.691406 -13.5 12.046875 -13.15625 L 12.046875 -13.015625 C 14.054688 -12.765625 15.546875 -12.128906 16.515625 -11.109375 C 17.484375 -10.085938 17.96875 -8.742188 17.96875 -7.078125 C 17.96875 -4.691406 17.140625 -2.859375 15.484375 -1.578125 C 13.828125 -0.296875 11.476562 0.34375 8.4375 0.34375 C 7.113281 0.34375 5.898438 0.242188 4.796875 0.046875 C 3.703125 -0.148438 2.640625 -0.503906 1.609375 -1.015625 L 1.609375 -3.703125 C 2.691406 -3.171875 3.84375 -2.765625 5.0625 -2.484375 C 6.289062 -2.203125 7.453125 -2.0625 8.546875 -2.0625 C 12.859375 -2.0625 15.015625 -3.753906 15.015625 -7.140625 C 15.015625 -10.171875 12.632812 -11.6875 7.875 -11.6875 L 5.421875 -11.6875 L 5.421875 -14.140625 L 7.90625 -14.140625 C 9.851562 -14.140625 11.394531 -14.566406 12.53125 -15.421875 C 13.675781 -16.285156 14.25 -17.476562 14.25 -19 C 14.25 -20.21875 13.828125 -21.175781 12.984375 -21.875 C 12.148438 -22.570312 11.019531 -22.921875 9.59375 -22.921875 C 8.5 -22.921875 7.46875 -22.769531 6.5 -22.46875 C 5.53125 -22.175781 4.421875 -21.628906 3.171875 -20.828125 L 1.75 -22.75 C 2.769531 -23.550781 3.945312 -24.179688 5.28125 -24.640625 C 6.625 -25.109375 8.035156 -25.34375 9.515625 -25.34375 C 11.941406 -25.34375 13.828125 -24.785156 15.171875 -23.671875 C 16.515625 -22.566406 17.1875 -21.046875 17.1875 -19.109375 Z M 17.1875 -19.109375 "/></g></g></g><g clip-path="url(#9d203659ea)"><g clip-path="url(#9a8dd8514f)"><path stroke-linecap="butt" transform="matrix(0.75, 0, 0, 0.75, 474.482982, 395.868955)" fill="none" stroke-linejoin="miter" d="M 63.68936 -0.00235705 C 28.512275 -0.00235705 0.00185686 28.513269 0.00185686 63.685146 C 0.00185686 98.862231 28.512275 127.372649 63.68936 127.372649 C 98.861237 127.372649 127.376863 98.862231 127.376863 63.685146 C 127.376863 28.513269 98.861237 -0.00235705 63.68936 -0.00235705 Z M 63.68936 -0.00235705 " stroke="#000000" stroke-width="16" stroke-opacity="1" stroke-miterlimit="4"/></g></g><g fill="#000000" fill-opacity="1"><g transform="translate(512.240793, 456.618952)"><g><path d="M 18.125 0 L 1.703125 0 L 1.703125 -2.4375 L 8.28125 -9.0625 C 10.289062 -11.082031 11.613281 -12.523438 12.25 -13.390625 C 12.882812 -14.265625 13.363281 -15.109375 13.6875 -15.921875 C 14.007812 -16.742188 14.171875 -17.628906 14.171875 -18.578125 C 14.171875 -19.910156 13.765625 -20.96875 12.953125 -21.75 C 12.140625 -22.53125 11.019531 -22.921875 9.59375 -22.921875 C 8.550781 -22.921875 7.566406 -22.75 6.640625 -22.40625 C 5.710938 -22.0625 4.675781 -21.441406 3.53125 -20.546875 L 2.03125 -22.46875 C 4.332031 -24.382812 6.835938 -25.34375 9.546875 -25.34375 C 11.898438 -25.34375 13.742188 -24.738281 15.078125 -23.53125 C 16.410156 -22.332031 17.078125 -20.722656 17.078125 -18.703125 C 17.078125 -17.117188 16.628906 -15.550781 15.734375 -14 C 14.847656 -12.445312 13.1875 -10.488281 10.75 -8.125 L 5.28125 -2.765625 L 5.28125 -2.625 L 18.125 -2.625 Z M 18.125 0 "/></g></g></g><g clip-path="url(#1e4c2e58b3)"><g clip-path="url(#d9a0e0febb)"><path stroke-linecap="butt" transform="matrix(0.75, 0, 0, 0.75, 753.825208, 443.640382)" fill="none" stroke-linejoin="miter" d="M 63.686184 0.000324425 C 28.514307 0.000324425 -0.0013194 28.515951 -0.0013194 63.687828 C -0.0013194 98.859704 28.514307 127.375331 63.686184 127.375331 C 98.863269 127.375331 127.373687 98.859704 127.373687 63.687828 C 127.373687 28.515951 98.863269 0.000324425 63.686184 0.000324425 Z M 63.686184 0.000324425 " stroke="#000000" stroke-width="16" stroke-opacity="1" stroke-miterlimit="4"/></g></g><g fill="#000000" fill-opacity="1"><g transform="translate(791.583019, 504.390379)"><g><path d="M 9.515625 -15.265625 C 12.148438 -15.265625 14.222656 -14.609375 15.734375 -13.296875 C 17.242188 -11.992188 18 -10.210938 18 -7.953125 C 18 -5.359375 17.175781 -3.328125 15.53125 -1.859375 C 13.882812 -0.390625 11.613281 0.34375 8.71875 0.34375 C 5.90625 0.34375 3.753906 -0.109375 2.265625 -1.015625 L 2.265625 -3.75 C 3.066406 -3.226562 4.0625 -2.820312 5.25 -2.53125 C 6.4375 -2.25 7.601562 -2.109375 8.75 -2.109375 C 10.757812 -2.109375 12.316406 -2.578125 13.421875 -3.515625 C 14.535156 -4.460938 15.09375 -5.832031 15.09375 -7.625 C 15.09375 -11.113281 12.957031 -12.859375 8.6875 -12.859375 C 7.601562 -12.859375 6.15625 -12.691406 4.34375 -12.359375 L 2.875 -13.296875 L 3.8125 -24.984375 L 16.234375 -24.984375 L 16.234375 -22.375 L 6.234375 -22.375 L 5.609375 -14.875 C 6.921875 -15.132812 8.222656 -15.265625 9.515625 -15.265625 Z M 9.515625 -15.265625 "/></g></g></g><g clip-path="url(#27f9f48b71)"><g clip-path="url(#f0a2050e2f)"><path stroke-linecap="butt" transform="matrix(0.75, 0, 0, 0.75, 593.643552, 588.858926)" fill="none" stroke-linejoin="miter" d="M 63.688808 0.000598166 C 28.511723 0.000598166 0.00130519 28.516225 0.00130519 63.688101 C 0.00130519 98.859978 28.511723 127.375605 63.688808 127.375605 C 98.860685 127.375605 127.376312 98.859978 127.376312 63.688101 C 127.376312 28.516225 98.860685 0.000598166 63.688808 0.000598166 Z M 63.688808 0.000598166 " stroke="#000000" stroke-width="16" stroke-opacity="1" stroke-miterlimit="4"/></g></g><g fill="#000000" fill-opacity="1"><g transform="translate(631.401363, 649.608923)"><g><path d="M 19.3125 -5.75 L 15.609375 -5.75 L 15.609375 0 L 12.890625 0 L 12.890625 -5.75 L 0.734375 -5.75 L 0.734375 -8.21875 L 12.59375 -25.125 L 15.609375 -25.125 L 15.609375 -8.328125 L 19.3125 -8.328125 Z M 12.890625 -8.328125 L 12.890625 -16.625 C 12.890625 -18.257812 12.945312 -20.101562 13.0625 -22.15625 L 12.921875 -22.15625 C 12.367188 -21.0625 11.851562 -20.15625 11.375 -19.4375 L 3.578125 -8.328125 Z M 12.890625 -8.328125 "/></g></g></g><path stroke-linecap="butt" transform="matrix(0.147838, 0.735285, -0.735285, 0.147838, 486.276894, 203.61439)" fill="none" stroke-linejoin="miter" d="M 0.00122455 3.500615 L 260.76331 3.500133 " stroke="#000000" stroke-width="7" stroke-opacity="1" stroke-miterlimit="4"/><path stroke-linecap="butt" transform="matrix(0.478413, 0.577599, -0.577599, 0.478413, 517.616476, 177.778473)" fill="none" stroke-linejoin="miter" d="M -0.000749477 3.501335 L 510.498608 3.499983 " stroke="#000000" stroke-width="7" stroke-opacity="1" stroke-miterlimit="4"/><path stroke-linecap="butt" transform="matrix(-0.188028, 0.726048, -0.726048, -0.188028, 1013.285355, 324.199837)" fill="none" stroke-linejoin="miter" d="M 3.4775 313.897955 C 51.697835 -99.965601 221.075841 -99.965764 511.606476 313.898771 " stroke="#000000" stroke-width="7" stroke-opacity="1" stroke-miterlimit="4"/><path stroke-linecap="butt" transform="matrix(-0.163294, -0.732008, 0.732008, -0.163294, 788.361111, 447.390285)" fill="none" stroke-linejoin="miter" d="M -0.00165636 3.497906 L 190.457143 3.502051 " stroke="#000000" stroke-width="7" stroke-opacity="1" stroke-miterlimit="4"/><path stroke-linecap="butt" transform="matrix(0.733517, 0.156374, -0.156374, 0.733517, 566.725466, 448.330629)" fill="none" stroke-linejoin="miter" d="M 0.00213258 3.500225 L 259.09229 3.501295 " stroke="#000000" stroke-width="7" stroke-opacity="1" stroke-miterlimit="4"/><g clip-path="url(#5dcfaf5e99)"><g clip-path="url(#53554d3f7b)"><g clip-path="url(#58b070793b)"><g transform="matrix(1, 0, 0, 1, 950, 378)"><g clip-path="url(#f7e99acbe2)"><g clip-path="url(#338e1d3b35)"><g clip-path="url(#d99e6d4217)"><g clip-path="url(#c268457407)"><path fill="#000000" d="M 32.441406 -17.179688 L 52.148438 19.742188 L 19.886719 36.960938 L 0.179688 0.0390625 Z M 32.441406 -17.179688 " fill-opacity="1" fill-rule="nonzero"/></g></g></g></g></g></g></g></g><g clip-path="url(#4d13c2ee81)"><g transform="matrix(1, 0, 0, 1, 961, 429)"><g clip-path="url(#68bae9e28c)"><g clip-path="url(#d749526896)"><path fill="#000000" d="M 0.871094 0.109375 L 37.582031 0.109375 L 37.582031 36.675781 L 0.871094 36.675781 Z M 0.871094 0.109375 " fill-opacity="1" fill-rule="nonzero"/></g></g></g></g><g clip-path="url(#d726267b6e)"><g clip-path="url(#feeae4e263)"><g clip-path="url(#424f052b2b)"><g transform="matrix(1, 0, 0, 1, 755, 353)"><g clip-path="url(#51ca4c805e)"><g clip-path="url(#9577b25ccd)"><g clip-path="url(#cbacf6135d)"><g clip-path="url(#3c3340f221)"><path fill="#000000" d="M 35.964844 -7.804688 L 45.109375 33.035156 L 9.425781 41.023438 L 0.28125 0.183594 Z M 35.964844 -7.804688 " fill-opacity="1" fill-rule="nonzero"/></g></g></g></g></g></g></g></g><g clip-path="url(#1a443023ef)"><g clip-path="url(#40f8e8035a)"><g clip-path="url(#6031c8d505)"><g transform="matrix(1, 0, 0, 1, 628, 447)"><g clip-path="url(#c2e0aae58c)"><g clip-path="url(#6ccd0cec1e)"><g clip-path="url(#85f8b17f25)"><g clip-path="url(#ce75381cc4)"><path fill="#000000" d="M 7.246094 -3.207031 L 48.355469 4.652344 L 41.488281 40.570312 L 0.382812 32.710938 Z M 7.246094 -3.207031 " fill-opacity="1" fill-rule="nonzero"/></g></g></g></g></g></g></g></g><g clip-path="url(#057d75c426)"><g clip-path="url(#3ef4831fe6)"><g transform="matrix(1, 0, 0, 1, 600, 288)"><g clip-path="url(#6915f7b855)"><g clip-path="url(#ee759aaed3)"><g clip-path="url(#0c15b01faa)"><path fill="#000000" d="M 0.585938 25.753906 L 27.539062 0.832031 L 52.363281 27.679688 L 25.410156 52.601562 Z M 0.585938 25.753906 " fill-opacity="1" fill-rule="nonzero"/></g></g></g></g></g></g><g clip-path="url(#14602696e2)"><g clip-path="url(#5b6e4b1ae3)"><g transform="matrix(1, 0, 0, 1, 477, 264)"><g clip-path="url(#cf5edc6128)"><g clip-path="url(#e62f783a3b)"><g clip-path="url(#04fc78856a)"><path fill="#000000" d="M 0.605469 7.070312 L 36.6875 0.308594 L 43.421875 36.25 L 7.339844 43.011719 Z M 0.605469 7.070312 " fill-opacity="1" fill-rule="nonzero"/></g></g></g></g></g></g><g clip-path="url(#e536703be5)"><g clip-path="url(#29962f8cd1)"><g clip-path="url(#caa5678ae2)"><g transform="matrix(1, 0, 0, 1, 491, 314)"><g clip-path="url(#829682018b)"><g clip-path="url(#ce9c58b6df)"><g clip-path="url(#bc6f4e3621)"><g clip-path="url(#ed21d8715e)"><path fill="#000000" d="M 36.539062 -6.988281 L 44.753906 34.046875 L 8.898438 41.222656 L 0.683594 0.183594 Z M 36.539062 -6.988281 " fill-opacity="1" fill-rule="nonzero"/></g></g></g></g></g></g></g></g></svg>